<svg version="1.1" id="Layer_1" xmlns="http://www.w3.org/2000/svg" xmlns:xlink="http://www.w3.org/1999/xlink" x="0px" y="0px"
	 width="100%" viewBox="0 0 1024 1024" enable-background="new 0 0 1024 1024" xml:space="preserve">
<path fill="#000000" opacity="1.000000" stroke="none" 
	d="
M943.375000,815.000122 
	C943.374634,836.166504 943.419006,856.833008 943.364075,877.499268 
	C943.264771,914.892456 914.392883,945.247253 877.046021,947.435303 
	C847.742126,949.152100 818.417358,948.136414 789.105957,948.153015 
	C579.108887,948.271851 369.111633,948.229309 159.114456,948.195801 
	C134.962387,948.191956 114.061134,940.550842 98.110252,921.566101 
	C86.917763,908.244690 81.688286,892.781372 81.681374,875.568054 
	C81.625404,736.236633 81.646645,596.905212 81.646317,457.573761 
	C81.646080,355.408478 81.691895,253.243134 81.628433,151.077881 
	C81.604065,111.846512 111.024429,82.917397 144.405640,78.482758 
	C148.055679,77.997849 151.660645,77.650482 155.316971,77.650414 
	C393.147156,77.646111 630.977356,77.722191 868.807434,77.568390 
	C905.109863,77.544914 934.337830,101.819656 941.513733,133.717224 
	C942.607483,138.578857 943.381592,143.491287 943.381409,148.509125 
	C943.371338,370.506104 943.373901,592.503052 943.375000,815.000122 
M101.228165,553.500000 
	C101.268456,659.164612 101.316895,764.829285 101.322922,870.493896 
	C101.323196,875.351685 101.878922,880.142639 103.017723,884.803162 
	C109.892891,912.939270 129.382767,928.016541 158.652206,928.016602 
	C306.816681,928.017151 454.981171,928.015747 603.145630,928.012024 
	C691.144348,928.009827 779.143311,928.109192 867.141602,927.911987 
	C886.179138,927.869324 902.812073,921.678711 914.281311,905.366577 
	C922.385498,893.840515 924.596985,880.571106 924.601501,866.933655 
	C924.674500,648.103394 924.688293,429.273102 924.597717,210.442871 
	C924.589233,189.964340 925.012451,169.491837 923.921936,148.993683 
	C922.557983,123.356575 901.065674,100.239929 875.389404,98.354980 
	C854.435669,96.816711 833.429688,97.796989 812.458374,97.697647 
	C790.992126,97.595947 769.516357,97.259415 748.033386,97.664940 
	C721.741089,98.161247 695.428223,97.465477 669.124207,97.469315 
	C646.139648,97.472656 623.154907,97.873276 600.170471,97.849586 
	C538.843018,97.786400 477.516388,97.873314 416.187805,97.547310 
	C333.357971,97.107025 250.524048,97.426796 167.691879,97.449997 
	C161.878372,97.451630 156.091965,97.512878 150.261200,98.172501 
	C134.686172,99.934509 122.124275,106.767197 112.485687,119.062218 
	C103.141289,130.981979 101.130264,144.808105 101.145950,159.505707 
	C101.285774,290.503693 101.228500,421.501862 101.228165,553.500000 
z"/>
<path fill="#000000" opacity="1.000000" stroke="none" 
	d="
M298.811523,283.155518 
	C305.186401,254.213120 316.659454,228.043915 334.453491,204.773224 
	C365.592499,164.050232 406.635162,138.945618 456.408905,127.755356 
	C470.216431,124.651108 484.228577,123.333229 498.386414,122.400131 
	C532.547302,120.148705 565.947205,123.994392 597.871704,135.833160 
	C662.367493,159.750580 705.160767,204.730530 724.480652,271.195282 
	C728.799622,286.053558 730.956360,301.347046 731.276123,316.834167 
	C731.347229,320.280823 732.430359,322.906738 734.776367,325.278534 
	C746.214539,336.842499 752.255310,350.453278 751.441284,367.049103 
	C750.927551,377.523865 751.248596,388.045319 751.363403,398.544006 
	C751.608704,420.976959 741.454163,436.670471 720.950623,445.617340 
	C717.993835,446.907562 716.750183,448.703094 716.256104,451.897400 
	C712.155396,478.408691 705.709717,504.171234 689.182068,526.087219 
	C672.839905,547.757202 651.608704,562.128479 624.683594,567.402405 
	C619.306519,568.455627 615.555237,571.981201 611.632019,575.317871 
	C590.380798,593.391541 567.163147,608.138245 540.575867,617.121277 
	C536.649170,618.447998 532.549927,619.256714 528.552612,620.383423 
	C523.722168,621.744995 522.613953,624.145020 523.346863,630.584351 
	C523.846375,634.973633 527.010315,634.621887 530.023926,634.653809 
	C535.019348,634.706726 540.014648,634.544739 544.983582,635.371338 
	C549.197388,636.072266 551.453430,638.053284 551.401306,642.677551 
	C551.251038,656.009094 551.386353,669.343567 551.327576,682.676575 
	C551.305237,687.744812 549.214600,690.210144 544.124512,690.245483 
	C522.625854,690.394775 501.125214,690.371582 479.626068,690.262207 
	C475.002930,690.238708 472.165802,687.290588 472.068604,682.046936 
	C471.824615,668.885376 471.793365,655.714478 472.006134,642.552612 
	C472.093323,637.161011 474.983246,635.019897 481.558105,634.731079 
	C486.377899,634.519348 491.218903,634.835938 496.015717,634.051697 
	C498.368591,633.667053 501.427216,634.356873 501.596466,630.615662 
	C501.760040,627.001282 502.503387,623.052795 497.809387,621.388916 
	C493.107605,619.722107 488.364319,618.161926 483.713928,616.362000 
	C452.625183,604.328918 424.398621,587.549683 400.078094,564.660828 
	C371.528961,537.792175 354.332214,504.956543 349.589722,465.834167 
	C349.091034,461.720337 347.974915,457.635864 347.914795,453.526520 
	C347.847229,448.907135 345.635284,448.094086 341.650116,448.085052 
	C332.355896,448.064026 323.115845,448.232300 313.796112,446.651001 
	C294.661011,443.404419 283.424164,431.984924 277.786255,414.224487 
	C275.468658,406.923676 274.439087,399.326691 274.711182,391.618591 
	C275.157013,378.987610 273.539032,366.288483 275.630707,353.722534 
	C277.520752,342.367828 282.454834,332.454590 291.395905,325.008362 
	C295.844971,321.303101 295.299652,316.237457 295.451843,311.733215 
	C295.773285,302.220642 297.237000,292.911255 298.811523,283.155518 
M487.532898,399.794739 
	C481.124756,412.915436 470.630127,420.739197 456.592010,424.448486 
	C445.070465,427.492798 433.404327,426.371399 421.827728,426.169800 
	C403.411194,425.849091 389.909821,416.794159 381.496582,400.524323 
	C375.679535,389.275085 376.078186,376.889069 376.926331,364.797485 
	C377.311676,359.303192 375.254974,357.931763 370.862366,356.956604 
	C365.958557,355.868042 365.077423,356.250366 365.076050,361.116302 
	C365.068817,386.560547 365.132111,412.004791 365.155304,437.449036 
	C365.169952,453.528687 367.980713,469.196289 372.459686,484.557098 
	C378.004425,503.573059 386.706604,521.008606 401.785675,534.236084 
	C427.272278,556.593201 457.988770,565.910522 491.217834,567.471741 
	C504.304565,568.086609 517.464111,567.856934 530.622681,566.945435 
	C548.172852,565.729675 565.250549,562.624329 581.686523,556.539856 
	C597.361145,550.737305 612.738037,543.823853 624.528992,531.619568 
	C646.919067,508.444702 657.810486,480.048859 658.570007,448.120117 
	C659.275085,418.481506 658.698242,388.812286 658.663513,359.156555 
	C658.662048,357.868195 659.040955,356.483429 657.899719,355.107178 
	C654.618408,354.912079 651.682983,356.814178 648.471741,357.476379 
	C646.579590,357.866547 646.396484,359.297363 646.709961,360.977570 
	C648.003052,367.908569 647.828735,374.936859 647.287964,381.876556 
	C645.682983,402.473267 637.665466,418.083832 612.659546,424.289246 
	C598.507690,427.801117 583.869751,427.538544 569.565002,424.825745 
	C551.877747,421.471558 540.235657,410.786133 534.708191,393.533081 
	C531.681946,384.087097 531.234436,374.294464 530.779541,364.532257 
	C530.587646,360.414886 529.298645,358.294739 524.963928,358.342987 
	C516.635071,358.435730 508.304443,358.351776 499.974884,358.397797 
	C497.818176,358.409698 495.640350,358.556091 493.958130,360.073151 
	C494.825806,373.604248 492.937561,386.606171 487.532898,399.794739 
M584.257202,233.792999 
	C570.069092,245.942886 553.934753,254.887421 536.829590,262.095459 
	C507.947662,274.266144 477.694122,281.089142 446.594757,284.218018 
	C429.354950,285.952515 412.029633,287.121185 394.782471,284.574432 
	C386.468597,283.346832 381.100250,287.360687 376.306885,293.029633 
	C367.046844,303.981262 364.730316,317.008209 365.077728,330.872437 
	C365.297729,339.652557 365.242737,339.436035 372.981232,342.964081 
	C377.182831,344.879639 379.250275,344.579834 381.084869,339.849670 
	C385.201202,329.236481 393.804779,323.989502 404.811707,323.771576 
	C425.464752,323.362701 446.141846,323.274292 466.788818,323.817627 
	C477.876740,324.109436 486.711517,329.267242 490.429932,340.528870 
	C491.735138,344.481873 493.872559,345.014771 497.571411,344.446228 
	C506.977448,343.000427 516.464417,342.981750 525.869202,344.472015 
	C530.023132,345.130219 532.463562,344.564514 534.203979,340.043793 
	C538.422424,329.086487 547.001892,323.744873 558.651672,323.672180 
	C578.145874,323.550507 597.645142,323.414276 617.134827,323.735992 
	C628.398499,323.921906 637.502319,328.329407 642.031921,339.553955 
	C642.704956,341.221649 643.170593,343.069427 645.147705,344.300964 
	C648.813721,342.815002 652.622925,341.212860 656.479553,339.734406 
	C658.189148,339.079041 658.621460,337.841003 658.651428,336.218292 
	C658.817383,327.230560 658.860962,318.250000 657.100159,309.375580 
	C653.687195,292.173798 644.184692,279.045898 630.352051,268.594391 
	C621.156555,261.646637 612.895081,253.669998 606.105896,244.243454 
	C601.812561,238.282303 598.928894,231.601669 596.140991,224.677734 
	C591.043762,226.452179 588.539551,230.711563 584.257202,233.792999 
M505.235565,142.435806 
	C502.262817,142.750916 499.297272,143.205139 496.316193,143.358582 
	C476.756317,144.365417 457.723083,148.181381 439.322906,154.751419 
	C367.399902,180.432510 326.491119,231.258957 316.439087,306.958801 
	C315.918060,310.882721 316.908783,312.908173 321.380035,312.747803 
	C328.369110,312.497101 335.381805,312.483582 342.369354,312.756653 
	C347.128845,312.942596 348.828491,311.123566 348.906952,306.380829 
	C349.085175,295.606842 349.883514,284.867523 351.593201,274.191223 
	C357.975159,234.338638 378.986511,203.811234 412.027802,181.699768 
	C450.311523,156.080017 493.005341,150.704773 537.740234,157.150497 
	C560.406677,160.416443 581.474182,168.413742 601.363586,179.623505 
	C630.989441,196.320892 653.646912,219.324661 666.993958,251.092056 
	C674.665039,269.350189 677.116699,288.496918 678.192444,307.953522 
	C678.398682,311.684418 679.677856,312.856293 683.281799,312.736237 
	C689.772888,312.519958 696.276306,312.686615 702.774597,312.675018 
	C709.697205,312.662659 710.458618,311.739349 709.566833,304.776459 
	C706.518860,280.979370 699.396790,258.543030 688.607788,237.047806 
	C670.759277,201.487625 641.726318,178.059158 606.638794,161.911362 
	C574.944946,147.325424 541.002380,141.786713 505.235565,142.435806 
M402.693939,401.817657 
	C404.643860,403.083221 406.481873,404.582672 408.561340,405.577393 
	C425.270203,413.570068 442.251312,411.880341 459.013794,406.121094 
	C465.424561,403.918518 470.348480,399.132690 472.734253,392.394592 
	C477.630829,378.565125 478.067841,364.441681 475.272156,350.156891 
	C474.341003,345.399017 471.226929,342.041443 466.522278,341.755920 
	C446.088257,340.515808 425.632050,340.277588 405.195404,341.943848 
	C404.869720,341.970428 404.558838,342.150909 404.232208,342.197388 
	C400.291321,342.757996 398.200287,345.137146 397.048981,348.861389 
	C393.611481,359.980713 392.788910,371.397980 393.546265,382.875214 
	C394.012665,389.942902 396.289032,396.597839 402.693939,401.817657 
M614.978882,341.383209 
	C597.657959,341.174530 580.336731,340.798981 563.016174,340.823181 
	C553.461182,340.836517 550.245056,342.971008 548.969421,352.179108 
	C547.165283,365.202209 546.895508,378.451233 551.371582,391.141357 
	C554.657715,400.457794 561.729248,406.213501 571.121826,408.630371 
	C582.708252,411.611816 594.565674,411.480621 606.296021,409.588989 
	C615.986938,408.026245 628.765015,399.420441 630.143860,385.883240 
	C631.270325,374.824097 630.446716,364.025024 628.280884,353.198425 
	C626.882568,346.208069 623.641357,341.523956 614.978882,341.383209 
M643.917358,542.884460 
	C643.907715,543.043823 643.841370,543.232910 643.904785,543.354065 
	C643.964844,543.468933 644.216736,543.613220 644.288940,543.573120 
	C646.314453,542.446777 648.502686,541.524597 650.317078,540.120361 
	C680.096130,517.072144 695.529419,486.811951 695.899353,448.732880 
	C691.396851,447.602844 686.732422,448.458496 682.146912,448.119690 
	C678.450562,447.846558 677.337891,449.416840 677.170044,453.045685 
	C676.693604,463.348999 674.967773,473.519684 672.512085,483.527618 
	C667.207336,505.146301 658.119934,524.983887 643.917358,542.884460 
z"/>
<path fill="#000000" opacity="1.000000" stroke="none" 
	d="
M329.251129,886.537598 
	C320.589661,867.010376 322.843018,849.246338 336.675232,833.380615 
	C344.943970,823.896240 355.762848,819.277466 368.322449,818.641235 
	C383.044617,817.895447 396.419403,821.289856 407.481659,831.509399 
	C424.377777,847.118225 426.952728,873.523254 413.295105,892.865234 
	C411.070496,896.015625 410.840729,898.045776 413.418182,900.932007 
	C415.931549,903.746277 417.885498,907.060120 420.298645,910.455200 
	C415.832977,914.471497 410.900024,916.862793 405.862793,918.874084 
	C403.113770,919.971741 401.499878,917.181763 400.513611,915.327515 
	C397.423828,909.518372 393.442993,909.179504 387.351898,910.793213 
	C365.886932,916.479858 339.230377,908.347290 329.251129,886.537598 
M378.133942,886.234436 
	C369.858704,876.501343 369.935547,876.578064 378.427826,868.069641 
	C381.128723,865.363647 382.835999,865.661011 385.255981,868.434448 
	C388.444672,872.088684 391.050659,876.376465 395.203674,879.258545 
	C402.446075,867.651367 400.060791,852.591003 390.085938,844.140381 
	C380.208130,835.771973 364.557556,835.408630 355.601288,843.425110 
	C346.757843,851.340454 344.522095,869.049927 351.131348,878.832092 
	C358.349701,889.515808 371.919952,894.909058 380.976349,890.510437 
	C380.163879,889.249695 379.363617,888.007812 378.133942,886.234436 
z"/>
<path fill="#000000" opacity="1.000000" stroke="none" 
	d="
M682.006958,725.018311 
	C691.634460,737.320557 701.051086,749.335205 710.452454,761.330383 
	C713.352478,759.674377 712.605347,757.462341 712.614380,755.619568 
	C712.681519,741.958069 712.801636,728.293823 712.581360,714.635620 
	C712.506226,709.981140 714.265808,708.599487 718.743469,708.588867 
	C733.334534,708.554321 733.341125,708.418884 733.342590,723.148071 
	C733.344971,746.806335 733.345459,770.464539 733.328674,794.122803 
	C733.323547,801.354370 732.381348,802.408569 725.389404,802.343933 
	C707.004150,802.174072 712.428284,804.629944 702.212341,790.331848 
	C694.373718,779.361145 687.231079,767.897278 678.853943,757.306885 
	C677.737183,755.895081 676.559753,754.531128 675.333130,753.051758 
	C673.409607,754.736938 674.159973,756.669373 674.151245,758.345886 
	C674.088806,770.341187 674.157959,782.337158 674.117249,794.332642 
	C674.094849,800.947571 672.694580,802.334167 666.307861,802.372925 
	C663.142456,802.392151 659.970825,802.253418 656.812744,802.406494 
	C652.487061,802.616150 650.724670,800.399658 650.722168,796.383423 
	C650.706116,770.726074 650.678833,745.068726 650.751953,719.411560 
	C650.758972,716.948242 651.375854,714.477539 651.804993,712.026978 
	C652.208313,709.723877 653.627075,708.633545 656.008789,708.671204 
	C659.673096,708.729126 663.340576,708.752380 667.003662,708.664307 
	C669.743042,708.598572 671.226501,710.357178 672.632263,712.246399 
	C675.713867,716.387695 678.744568,720.566956 682.006958,725.018311 
z"/>
<path fill="#000000" opacity="1.000000" stroke="none" 
	d="
M455.024963,729.000244 
	C454.929657,723.673828 454.863129,718.846436 454.735504,714.020569 
	C454.646454,710.652222 455.810791,708.541138 459.588379,708.671509 
	C464.227539,708.831665 468.855042,708.416992 473.497650,709.483948 
	C476.387421,710.147949 477.359253,711.472046 477.355743,714.223450 
	C477.320923,741.700256 477.310699,769.177124 477.361786,796.653809 
	C477.368896,800.484436 475.392578,802.141296 471.888428,802.269653 
	C468.229614,802.403625 464.562805,802.326843 460.899475,802.327271 
	C456.517365,802.327759 454.690521,798.810303 452.516937,795.982666 
	C441.868591,782.129822 431.327942,768.194214 420.739105,754.295593 
	C419.946594,753.255432 419.074646,752.275757 418.028717,751.013428 
	C416.320587,753.593750 416.351166,756.192139 416.350830,758.785339 
	C416.349274,771.607849 416.232361,784.432007 416.410980,797.251953 
	C416.464996,801.129761 415.259796,802.516174 411.274567,802.412109 
	C393.040222,801.935669 396.199463,804.972168 395.499451,786.857117 
	C394.585632,763.209656 396.034973,739.584229 395.645355,715.946777 
	C395.533722,709.175049 397.096588,708.209290 403.891144,707.757385 
	C409.656769,707.373901 413.407776,709.368408 416.864075,714.017944 
	C427.683228,728.572327 438.949493,742.794373 450.050964,757.138672 
	C451.251648,758.690063 452.507629,760.198730 454.478638,762.647339 
	C456.485413,750.897217 454.443909,740.156860 455.024963,729.000244 
z"/>
<path fill="#000000" opacity="1.000000" stroke="none" 
	d="
M599.577148,801.901855 
	C571.070251,809.049133 544.461670,794.826355 537.064819,767.967285 
	C529.521667,740.577087 547.067444,708.185242 581.636658,707.552124 
	C594.853516,707.310120 607.163147,709.292725 617.742676,717.826233 
	C645.864685,740.509766 639.706055,784.986450 606.466614,799.227539 
	C604.328186,800.143677 602.127136,800.913940 599.577148,801.901855 
M613.536255,764.953918 
	C614.816101,760.552551 614.380554,756.162659 613.665527,751.716797 
	C611.749023,739.801025 604.220276,732.874451 593.280579,729.588013 
	C582.549255,726.364258 572.356995,727.785461 564.429626,736.471130 
	C556.490723,745.169434 554.946899,758.805054 560.503723,769.594238 
	C565.941650,780.152588 575.000610,785.733521 586.730347,785.464233 
	C597.679993,785.212830 609.580505,778.744812 613.536255,764.953918 
z"/>
<path fill="#000000" opacity="1.000000" stroke="none" 
	d="
M651.390747,886.481079 
	C651.374634,892.921082 651.384583,898.914307 651.341064,904.907043 
	C651.296875,910.980225 650.967346,911.287537 644.712280,911.337463 
	C641.549561,911.362732 638.369995,911.139526 635.227295,911.391907 
	C630.663147,911.758484 628.883240,909.804504 628.971375,905.328613 
	C629.125366,897.507324 629.023315,889.680969 629.025208,881.856750 
	C629.029785,863.378357 628.985840,844.899719 629.060120,826.421631 
	C629.087952,819.489746 629.641174,818.901245 636.451660,819.006409 
	C649.422302,819.206665 662.416382,818.230652 675.362732,819.649719 
	C689.486816,821.197998 700.016052,829.719543 702.055481,841.962952 
	C704.017395,853.740906 701.084412,864.210571 691.315857,871.815125 
	C687.604004,874.704712 687.754211,877.190002 689.767456,881.047241 
	C693.686340,888.555725 696.963074,896.397644 700.576477,904.068115 
	C702.193115,907.499939 700.992004,909.307373 697.568970,910.379578 
	C692.660583,911.917114 687.670959,911.314270 682.703125,911.222290 
	C680.350037,911.178772 679.378418,909.175171 678.440369,907.440063 
	C674.801086,900.708679 671.237061,893.936523 667.663818,887.169556 
	C665.525208,883.119446 657.983276,880.134888 653.695068,881.584351 
	C651.410461,882.356567 651.440247,884.180725 651.390747,886.481079 
M665.876099,863.570129 
	C667.002686,863.291809 668.137695,863.043213 669.254639,862.730225 
	C676.184143,860.788452 678.971802,856.970032 678.868713,849.591064 
	C678.784119,843.532227 676.725342,841.221863 669.515686,839.345764 
	C667.607117,838.849182 665.617798,838.373108 663.666504,838.376648 
	C648.886658,838.403503 651.634705,836.639771 651.426208,850.253540 
	C651.218811,863.792114 651.360168,863.794250 665.876099,863.570129 
z"/>
<path fill="#000000" opacity="1.000000" stroke="none" 
	d="
M496.176880,876.208252 
	C496.433441,859.477478 496.569336,843.166138 496.675751,826.854675 
	C496.723907,819.468445 497.281891,818.881165 504.606262,818.910889 
	C507.770538,818.923706 510.935059,818.923889 514.099060,818.962708 
	C517.734680,819.007263 519.768799,820.608276 519.340515,824.505371 
	C517.297668,843.095093 519.103760,861.762390 518.241882,880.364075 
	C517.404175,898.444031 504.445587,911.207703 486.049194,912.216370 
	C477.460632,912.687317 468.813080,913.027649 460.309662,910.481201 
	C446.737366,906.416626 439.840149,896.927307 437.681946,883.498779 
	C435.608215,870.595886 437.073914,857.571960 436.730469,844.607117 
	C436.549713,837.783325 436.812592,830.948059 436.650330,824.123352 
	C436.562836,820.441711 438.209686,818.952026 441.699829,818.985596 
	C445.196960,819.019287 448.695160,818.952332 452.191925,819.001404 
	C457.757599,819.079529 458.885162,820.136230 458.907837,825.787781 
	C458.961914,839.278076 458.856537,852.768982 458.922058,866.259155 
	C458.947052,871.399109 459.211517,876.516602 460.890289,881.491089 
	C463.778809,890.049988 469.420654,893.511230 479.530304,892.651794 
	C488.870453,891.857727 494.668396,886.670410 495.795319,878.104980 
	C495.860413,877.610229 495.960388,877.120056 496.176880,876.208252 
z"/>
<path fill="#000000" opacity="1.000000" stroke="none" 
	d="
M551.080444,903.874512 
	C549.579285,909.837708 546.132568,912.246338 540.348206,911.394531 
	C538.555786,911.130615 536.692383,911.351013 534.861511,911.345276 
	C527.554260,911.322205 525.969971,909.370789 528.249146,902.302124 
	C530.491699,895.347229 533.167786,888.531311 535.685425,881.666077 
	C542.664185,862.636047 549.763123,843.649109 556.567810,824.557068 
	C558.078003,820.319885 560.181396,818.082520 564.863037,818.601501 
	C567.329407,818.874939 569.851013,818.647522 572.347717,818.650208 
	C581.240295,818.659912 583.196106,819.811951 586.369019,828.328369 
	C595.593445,853.087280 604.660217,877.904907 613.777405,902.703735 
	C614.235229,903.949219 614.636536,905.220764 614.975281,906.503662 
	C615.772461,909.523254 615.001038,911.398865 611.457520,911.350464 
	C606.964355,911.289185 602.469727,911.296936 597.976074,911.328674 
	C595.528198,911.345947 593.871033,910.227356 592.857056,908.059509 
	C592.645935,907.608215 592.384338,907.151733 592.305847,906.671509 
	C590.329590,894.578552 582.689514,891.485718 571.597900,893.242065 
	C568.026123,893.807678 564.266174,893.577393 560.632324,893.257446 
	C556.263550,892.872803 553.638062,894.311096 552.830994,898.800232 
	C552.540771,900.414490 551.773682,901.943054 551.080444,903.874512 
M576.719055,872.667297 
	C580.005554,872.948059 580.403625,871.229065 579.428162,868.666016 
	C577.832397,864.473022 576.262024,860.267090 574.522522,856.133240 
	C573.622131,853.993530 573.378296,851.356506 570.757935,849.858521 
	C567.359131,857.197144 564.489990,864.334106 562.395569,872.022766 
	C567.277954,873.206665 571.605774,872.465210 576.719055,872.667297 
z"/>
<path fill="#000000" opacity="1.000000" stroke="none" 
	d="
M314.350342,748.993286 
	C314.400055,755.640747 314.297699,761.766479 315.283173,767.903320 
	C316.756714,777.079285 322.966827,783.445435 333.289795,784.266052 
	C340.066772,784.804749 348.289246,781.881104 351.640778,771.831299 
	C352.850800,768.202759 353.692657,764.503052 353.672791,760.612305 
	C353.609009,748.114075 353.661865,735.615356 353.635040,723.116882 
	C353.631470,721.458313 353.557159,719.779358 353.294250,718.145447 
	C352.033905,710.312622 353.411682,708.696106 361.498962,708.668152 
	C376.591003,708.616028 375.363220,707.647644 375.350555,722.310425 
	C375.337738,737.142029 375.378845,751.973694 375.340057,766.805237 
	C375.284454,788.055115 360.486053,803.131531 339.323975,803.344543 
	C332.686188,803.411438 326.032440,803.843445 319.417725,802.376404 
	C305.615021,799.315186 295.941681,788.192871 294.583527,774.019653 
	C292.671509,754.066956 294.169617,734.080994 293.645111,714.118774 
	C293.550812,710.530090 295.375641,708.753784 298.719360,708.741272 
	C315.515594,708.678589 314.393066,706.643555 314.354248,722.497681 
	C314.333008,731.163330 314.350189,739.829102 314.350342,748.993286 
z"/>
<path fill="#000000" opacity="1.000000" stroke="none" 
	d="
M773.855347,873.778809 
	C771.568909,875.349976 769.365417,875.106079 767.212280,875.114868 
	C759.883301,875.144653 752.554138,875.190369 745.225342,875.159119 
	C741.932556,875.145081 740.206299,876.555115 740.372437,879.956482 
	C740.461792,881.784119 740.529968,883.613525 740.661682,885.438232 
	C740.936584,889.245117 742.748840,890.854492 746.805542,890.735596 
	C755.792847,890.472168 764.793762,890.616760 773.788513,890.682312 
	C780.969971,890.734619 782.383057,892.107056 782.331421,899.112732 
	C782.232422,912.542542 784.131897,911.305542 770.001099,911.337830 
	C755.175781,911.371704 740.350220,911.364990 725.524902,911.337097 
	C719.812134,911.326355 718.688599,910.315491 718.678345,904.706970 
	C718.629639,878.054688 718.710754,851.402039 718.603210,824.750122 
	C718.585388,820.326416 720.549683,818.916870 724.665344,818.937378 
	C740.989502,819.018860 757.314453,818.905396 773.638733,818.969910 
	C779.848267,818.994446 781.268616,820.544922 781.339172,826.643921 
	C781.482910,839.069580 781.158630,839.391479 768.459900,839.393066 
	C760.797302,839.394043 753.130859,839.536682 745.473755,839.331116 
	C741.517090,839.224915 740.276978,840.783264 740.271240,844.627197 
	C740.256348,854.644409 740.115723,854.693298 749.928040,854.633728 
	C756.928345,854.591187 763.885376,854.658386 770.766235,856.320740 
	C773.863647,857.069153 775.552124,858.615234 775.304382,861.788574 
	C774.999634,865.691467 776.423706,869.766968 773.855347,873.778809 
z"/>
<path fill="#000000" opacity="1.000000" stroke="none" 
	d="
M258.889587,867.363770 
	C244.056824,861.765076 242.522354,842.421021 249.946075,832.610901 
	C260.230225,819.020874 270.944580,817.287964 285.074951,819.101868 
	C293.059631,820.126831 300.186707,824.078857 307.141418,828.079529 
	C309.809814,829.614624 310.916840,831.322449 308.241669,833.862305 
	C307.524170,834.543518 306.989838,835.415527 306.355957,836.187317 
	C299.261261,844.824890 299.268951,844.802246 288.949432,840.793396 
	C283.976532,838.861511 278.944519,837.225647 273.479462,837.350403 
	C269.777191,837.434937 266.661591,838.641479 265.751801,842.352905 
	C264.816040,846.170349 267.413727,848.610779 270.541565,850.197998 
	C275.884460,852.909302 281.368286,855.314941 287.261749,856.625793 
	C289.045013,857.022400 290.832001,857.409912 292.598389,857.873535 
	C309.595459,862.335083 315.431854,870.983215 313.104309,888.227722 
	C311.273712,901.790588 299.139038,911.852295 284.941986,912.483215 
	C272.006866,913.058044 260.199127,910.394348 249.517136,902.982117 
	C242.547699,898.145996 242.300446,895.842590 248.260284,889.750244 
	C255.381531,882.470581 255.333160,882.557068 264.119141,887.478760 
	C270.375244,890.983276 276.745239,894.280334 284.376495,892.668091 
	C288.286530,891.842102 291.208984,890.013489 292.022156,885.844055 
	C292.761383,882.053833 290.222260,880.073792 287.581055,878.202820 
	C282.744293,874.776550 277.149811,873.131287 271.590210,871.397766 
	C267.471497,870.113403 263.365082,868.789490 258.889587,867.363770 
z"/>
<path fill="#000000" opacity="1.000000" stroke="none" 
	d="
M520.303589,781.998535 
	C520.302979,786.989197 520.209656,791.482788 520.328552,795.970764 
	C520.443298,800.305542 518.677795,802.558594 514.151855,802.358582 
	C496.177124,801.564514 499.188232,804.331909 498.572815,787.382629 
	C497.704559,763.468628 497.677765,739.554932 497.659668,715.636292 
	C497.654724,709.086914 498.179993,708.549011 504.572479,708.079712 
	C518.846313,707.031738 520.310791,708.391602 520.305664,722.615112 
	C520.298523,742.243103 520.303772,761.871033 520.303589,781.998535 
z"/>
<path fill="#000000" opacity="1.000000" stroke="none" 
	d="
M578.793579,509.294189 
	C560.255554,510.274384 542.752197,508.187683 526.527344,499.533661 
	C523.014282,497.659912 519.642212,495.468231 516.409607,493.139191 
	C513.748352,491.221680 511.467133,490.946960 508.751801,493.009216 
	C494.070343,504.159485 477.301056,509.518646 459.033386,509.696747 
	C450.301575,509.781891 441.429321,509.726501 432.983704,506.461792 
	C424.484711,503.176422 421.577728,497.481323 424.286774,488.732788 
	C426.597290,481.271210 431.610168,475.706848 437.280396,470.754242 
	C447.317322,461.987671 458.868042,455.747437 471.571411,451.826324 
	C475.396179,450.645752 476.871216,448.909454 476.853119,444.843323 
	C476.805511,434.152313 483.084564,430.604797 492.037292,436.156403 
	C505.544159,444.532135 518.872131,445.081909 532.167908,435.793152 
	C540.075867,430.268433 544.096558,433.678070 547.085815,437.898804 
	C548.422546,439.786224 548.584717,442.043884 548.269226,444.152344 
	C547.516418,449.183502 550.060303,451.083466 554.487610,452.542053 
	C569.753967,457.571655 583.107544,465.860901 594.261597,477.495270 
	C598.192383,481.595306 601.485718,486.072845 602.649536,491.953217 
	C603.743347,497.479706 601.956909,501.378265 597.364014,504.237061 
	C591.830994,507.681030 585.573730,508.579987 578.793579,509.294189 
z"/>
<path fill="#000000" opacity="1.000000" stroke="none" 
	d="
M486.522644,515.870239 
	C501.206268,514.158813 515.523926,514.771423 529.820801,514.768555 
	C533.451355,514.767822 537.110535,515.295410 540.705322,515.890259 
	C545.156006,516.626709 547.955017,519.207581 547.969116,523.966980 
	C547.981079,528.033386 544.471558,531.721069 539.954041,532.172974 
	C536.654053,532.503052 533.299255,532.305420 529.968933,532.309204 
	C515.979126,532.325073 501.988800,532.403809 487.999756,532.304932 
	C480.737457,532.253601 476.501923,525.475159 479.878265,519.720093 
	C481.306732,517.285217 483.735565,516.732178 486.522644,515.870239 
z"/>
<path fill="#000000" opacity="1.000000" stroke="none" 
	d="
M452.664062,375.256348 
	C450.981567,375.951508 451.070282,377.024811 451.085297,378.276428 
	C451.217438,389.289520 445.919373,395.304565 436.195068,395.304016 
	C426.173218,395.303467 420.733246,389.182953 420.850891,378.042511 
	C420.857849,377.386230 420.851807,376.729828 420.851807,376.064667 
	C419.502197,374.843018 417.833923,374.585236 416.215790,374.386444 
	C412.275391,373.902283 411.639496,371.134979 411.487976,367.919922 
	C411.335968,364.694977 413.005646,362.657410 415.996582,362.345215 
	C424.400757,361.468018 432.820862,359.883667 441.295502,361.284546 
	C445.912415,362.047760 450.569366,361.260620 455.199097,362.248047 
	C458.966736,363.051605 461.335999,364.471283 461.326111,368.650421 
	C461.315857,372.987335 458.727844,374.393433 454.932098,374.630066 
	C454.282074,374.670563 453.647766,374.963715 452.664062,375.256348 
z"/>
<path fill="#000000" opacity="1.000000" stroke="none" 
	d="
M581.467285,394.058838 
	C575.803101,390.626007 573.208984,385.891846 573.673218,379.673553 
	C573.887512,376.802521 572.918579,375.450165 569.971436,375.023193 
	C565.581360,374.387177 563.125427,371.922302 563.679932,367.124451 
	C564.204102,362.589752 567.741394,362.436340 571.026733,361.943115 
	C583.131348,360.125732 595.232849,361.192780 607.303711,362.259338 
	C612.391724,362.708923 613.966736,365.251343 613.183411,370.051697 
	C612.701538,373.005280 611.027527,374.230896 608.093628,374.469269 
	C605.199097,374.704376 603.531738,375.579742 603.936829,379.525055 
	C605.130676,391.150970 594.370544,398.105530 581.467285,394.058838 
z"/>
</svg>
